<svg width="55" height="55" viewBox="0 0 55 55" fill="none" xmlns="http://www.w3.org/2000/svg">
<path d="M12.3271 45.115H43.6032M18.1312 9.83244H37.7287M27.9652 5.15629C30.0324 5.14836 32.0964 5.32134 34.1335 5.67325C36.543 6.07896 38.8892 6.79783 41.1124 7.81159C42.37 8.26875 43.4651 9.08599 44.2612 10.1614C44.6684 10.9311 44.9199 11.7735 45.0014 12.6405C45.7533 16.3179 46.5405 23.5436 46.7638 25.2825V45.115H43.6032V48.2755C43.6276 48.6446 43.576 49.0147 43.4515 49.363C43.327 49.7113 43.1324 50.0303 42.8796 50.3004C42.6268 50.5704 42.3213 50.7856 41.982 50.9328C41.6426 51.08 41.2767 51.1559 40.9068 51.1559C40.537 51.1559 40.171 51.08 39.8317 50.9328C39.4923 50.7856 39.1868 50.5704 38.9341 50.3004C38.6813 50.0303 38.4866 49.7113 38.3622 49.363C38.2377 49.0147 38.186 48.6446 38.2104 48.2755V45.115H17.72V48.2755C17.7443 48.6446 17.6927 49.0147 17.5682 49.363C17.4437 49.7113 17.2491 50.0303 16.9963 50.3004C16.7435 50.5704 16.438 50.7856 16.0987 50.9328C15.7594 51.08 15.3934 51.1559 15.0236 51.1559C14.6537 51.1559 14.2877 51.08 13.9484 50.9328C13.6091 50.7856 13.3036 50.5704 13.0508 50.3004C12.798 50.0303 12.6034 49.7113 12.4789 49.363C12.3544 49.0147 12.3028 48.6446 12.3271 48.2755V45.115H9.16663V25.2825C9.35461 23.5436 10.1418 16.3649 10.8937 12.6405C10.9752 11.7735 11.2267 10.9311 11.6339 10.1614C12.4301 9.08599 13.5252 8.26875 14.7827 7.81159C17.0059 6.79783 19.3521 6.07896 21.7617 5.67325C23.8103 5.31928 25.8862 5.1463 27.9652 5.15629V5.15629ZM15.5816 13.2044C15.1906 13.2175 14.8167 13.3687 14.5264 13.631C14.2361 13.8934 14.048 14.2501 13.9955 14.6378L12.5034 25.4705C12.4421 25.8981 12.5504 26.3327 12.805 26.6817C13.0595 27.0306 13.4404 27.2664 13.8663 27.3386H41.7821C42.2166 27.3388 42.634 27.1695 42.9455 26.8667C43.2571 26.5639 43.4383 26.1515 43.4505 25.7172C43.4563 25.6429 43.4563 25.5683 43.4505 25.494L41.9584 14.6613C41.9043 14.2637 41.7077 13.8992 41.4052 13.6356C41.1027 13.372 40.7148 13.2271 40.3135 13.2279H15.6404L15.5816 13.2044ZM15.0412 33.7184C14.4802 33.716 13.9311 33.8804 13.4637 34.1907C12.9962 34.5009 12.6315 34.943 12.4157 35.4609C12.1999 35.9788 12.1429 36.5491 12.2518 37.0994C12.3606 37.6498 12.6306 38.1554 13.0273 38.5521C13.424 38.9488 13.9296 39.2187 14.4799 39.3276C15.0303 39.4365 15.6006 39.3794 16.1184 39.1636C16.6363 38.9479 17.0784 38.5831 17.3887 38.1157C17.6989 37.6482 17.8633 37.0992 17.861 36.5382C17.861 35.7903 17.5639 35.0731 17.0351 34.5443C16.5063 34.0154 15.789 33.7184 15.0412 33.7184V33.7184ZM40.8892 33.7184C40.3287 33.7184 39.7808 33.8847 39.3149 34.1964C38.849 34.5081 38.4861 34.951 38.2721 35.4691C38.0581 35.9871 38.0028 36.5571 38.113 37.1066C38.2232 37.6562 38.494 38.1607 38.8912 38.5563C39.2884 38.9518 39.794 39.2205 40.344 39.3285C40.8941 39.4364 41.4638 39.3786 41.981 39.1625C42.4981 38.9464 42.9395 38.5816 43.2493 38.1145C43.559 37.6473 43.7231 37.0987 43.7207 36.5382C43.7223 36.1664 43.6501 35.7981 43.5082 35.4545C43.3663 35.1109 43.1576 34.7989 42.8942 34.5366C42.6308 34.2743 42.3179 34.0669 41.9737 33.9264C41.6296 33.786 41.2609 33.7153 40.8892 33.7184V33.7184Z" stroke="#8EAECF" stroke-width="2" stroke-linecap="round" stroke-linejoin="round"/>
</svg>
