<svg width="25" height="25" viewBox="0 0 25 25" fill="none" xmlns="http://www.w3.org/2000/svg">
<path d="M12.5 17.262L8.92859 13.6906L12.5 10.1191M8.92859 13.6906H22.0238" stroke="white" stroke-linecap="round" stroke-linejoin="round"/>
<path d="M19.6429 11.3097V6.5418C19.6429 6.25021 19.5358 5.96878 19.342 5.75088C19.1483 5.53298 18.8813 5.39377 18.5917 5.35965L18.4488 5.35132L16.0715 5.35727M8.92861 5.35727L6.55003 5.35132C6.2584 5.35071 5.97669 5.45716 5.75834 5.65049C5.54 5.84382 5.40021 6.11057 5.36551 6.40013L5.35718 6.54299V19.6347C5.35718 19.9504 5.4826 20.2532 5.70586 20.4764C5.92912 20.6997 6.23192 20.8251 6.54765 20.8251L18.4524 20.8323C18.744 20.8326 19.0256 20.7258 19.2437 20.5323C19.4618 20.3387 19.6013 20.0718 19.6357 19.7823L19.6429 19.643V16.6668" stroke="white" stroke-linecap="round" stroke-linejoin="round"/>
<path fill-rule="evenodd" clip-rule="evenodd" d="M10.1191 4.16675H14.881C15.1967 4.16675 15.4995 4.29217 15.7228 4.51543C15.946 4.73869 16.0714 5.04149 16.0714 5.35722C16.0714 5.67296 15.946 5.97576 15.7228 6.19902C15.4995 6.42228 15.1967 6.5477 14.881 6.5477H10.1191C9.80333 6.5477 9.50053 6.42228 9.27727 6.19902C9.05401 5.97576 8.92859 5.67296 8.92859 5.35722C8.92859 5.04149 9.05401 4.73869 9.27727 4.51543C9.50053 4.29217 9.80333 4.16675 10.1191 4.16675V4.16675Z" stroke="white" stroke-linecap="round" stroke-linejoin="round"/>
</svg>
