<svg width="136" height="110" viewBox="0 0 136 110" fill="none" xmlns="http://www.w3.org/2000/svg">
<g id="Group 14">
<g id="mdi:shoe-heel">
<path id="Vector 1" d="M85.7786 72.4928C73.7 69.9499 46.2372 85.7156 58.4429 87.7499C70.6486 89.7842 85.1429 89.4452 90.8643 89.0213C96.3739 84.7833 112.097 73.1285 115.657 70.5856M114.386 75.6713V89.0213C116.293 89.0213 121.379 89.0213 122.65 89.0213C123.667 89.0213 124.981 75.8832 124.557 70.5856C127.312 65.0761 129.261 53.5485 122.65 41.3428C117.564 41.3428 118.412 41.3428 119.471 41.3428C113.326 51.0904 93.9158 75.6713 85.7786 75.6713" stroke="#8EAECF" stroke-width="2" stroke-linecap="round" stroke-linejoin="round"/>
</g>
<g id="icon-park-outline:bow" clip-path="url(#clip0_292_98)">
<path id="Vector" d="M45.9114 56.021C38.3071 79.8753 30.283 74.3662 30.1711 72.1999C29.9025 66.9528 29.1598 61.6583 27.6547 58.6608C26.09 55.5447 21.6251 52.8471 17.8922 49.5729C16.4644 48.3219 16.9003 46.1252 18.7301 45.6193C22.0997 44.4488 29.5766 40.1729 36.9179 44.7652M45.9114 56.021L56.3375 50.7857L51.1022 40.3596M45.9114 56.021L40.6762 45.5949L51.1022 40.3596M58.6226 53.4488C60.6555 52.6941 81.6846 57.5345 78.7149 47.8245C74.6669 44.4752 70.8641 40.7173 69.359 37.7198C67.7943 34.6037 69.7051 30.6529 69.3086 25.7035C69.1579 23.8111 66.3917 19.8945 64.2295 22.7725C59.8951 25.2303 49.5235 33.0312 51.1022 40.3596" stroke="#8EAECF" stroke-width="2" stroke-linecap="round" stroke-linejoin="round"/>
</g>
</g>
<defs>
<clipPath id="clip0_292_98">
<rect width="70" height="70" fill="white" transform="translate(0 31.4116) rotate(-26.6627)"/>
</clipPath>
</defs>
</svg>
