<svg width="48" height="47" viewBox="0 0 48 47" fill="none" xmlns="http://www.w3.org/2000/svg">
<path d="M23.9215 30.5064C27.933 30.5064 31.185 27.2545 31.185 23.243C31.185 19.2315 27.933 15.9796 23.9215 15.9796C19.91 15.9796 16.6581 19.2315 16.6581 23.243C16.6581 27.2545 19.91 30.5064 23.9215 30.5064Z" stroke="#D5C690" stroke-width="2" stroke-miterlimit="10"/>
<path d="M31.9113 6.53711H15.9317C11.1179 6.53711 7.21558 10.4395 7.21558 15.2532V31.2328C7.21558 36.0466 11.1179 39.9489 15.9317 39.9489H31.9113C36.7251 39.9489 40.6274 36.0466 40.6274 31.2328V15.2532C40.6274 10.4395 36.7251 6.53711 31.9113 6.53711Z" stroke="#D5C690" stroke-width="2" stroke-linecap="round" stroke-linejoin="round"/>
<path d="M33.364 15.9795C34.5674 15.9795 35.543 15.0039 35.543 13.8005C35.543 12.597 34.5674 11.6215 33.364 11.6215C32.1605 11.6215 31.1849 12.597 31.1849 13.8005C31.1849 15.0039 32.1605 15.9795 33.364 15.9795Z" fill="#D5C690"/>
</svg>
