<svg width="42" height="45" viewBox="0 0 42 45" fill="none" xmlns="http://www.w3.org/2000/svg">
<g id="MapPinLine">
<path id="Vector" d="M9.14514 40.0834H32.6613" stroke="#D5C690" stroke-width="2" stroke-linecap="round" stroke-linejoin="round"/>
<path id="Vector_2" d="M20.9033 23.6775C23.7894 23.6775 26.1291 21.2291 26.1291 18.2088C26.1291 15.1886 23.7894 12.7402 20.9033 12.7402C18.0172 12.7402 15.6775 15.1886 15.6775 18.2088C15.6775 21.2291 18.0172 23.6775 20.9033 23.6775Z" stroke="#D5C690" stroke-width="2" stroke-linecap="round" stroke-linejoin="round"/>
<path id="Vector_3" d="M33.9678 18.2089C33.9678 30.5133 20.9033 40.0833 20.9033 40.0833C20.9033 40.0833 7.83875 30.5133 7.83875 18.2089C7.83875 14.583 9.21518 11.1056 11.6653 8.54165C14.1153 5.97774 17.4383 4.53735 20.9033 4.53735C24.3682 4.53735 27.6912 5.97774 30.1413 8.54165C32.5913 11.1056 33.9678 14.583 33.9678 18.2089V18.2089Z" stroke="#D5C690" stroke-width="2" stroke-linecap="round" stroke-linejoin="round"/>
</g>
</svg>
