<svg width="94" height="110" viewBox="0 0 94 110" fill="none" xmlns="http://www.w3.org/2000/svg">
<g id="Frame" clip-path="url(#clip0_292_79)">
<g id="Group">
<path id="Vector" d="M90.3945 77.6387C86.7152 78.2637 86.8595 80.6943 86.8595 84.2359C86.8595 86.2498 86.9316 88.2637 86.7874 90.2776C86.7152 92.3609 85.7774 94.097 83.7574 94.9304C81.8817 95.6943 80.006 95.4859 78.2746 94.3748C76.1103 92.9859 76.3267 89.3748 78.6353 88.2637C79.501 87.847 80.511 87.3609 81.4488 87.4304C84.0459 87.4998 84.7674 86.3193 84.5509 83.9582C84.3345 81.8054 84.6231 79.6526 84.4788 77.4998C84.4067 76.1109 84.9838 75.5554 86.2824 75.2776C88.0859 74.8609 90.3223 75.6943 92.0538 75.0693C93.6409 74.5137 93.6409 73.7498 93.5687 75.1387C93.5687 75.5554 92.5588 77.2915 90.3945 77.6387Z" stroke="#D5C690" stroke-width="2" stroke-miterlimit="10" stroke-linecap="round" stroke-linejoin="round"/>
<path id="Vector_2" d="M90.3944 55.486C90.178 53.8888 88.8794 53.2638 87.2923 53.0554C86.2823 52.9165 85.4166 53.2638 84.5509 53.5415C79.4288 55.2777 74.3067 57.1527 70.2667 51.6665C69.1846 49.5138 67.1646 48.7499 64.856 48.5415C63.5575 48.1943 62.1867 47.8471 60.8882 47.4999C64.2789 46.9443 67.0924 44.4443 67.8139 40.9027C68.7517 36.4582 65.866 32.0138 61.321 31.0415C56.6318 29.9999 51.7982 32.8471 50.7882 37.2915C49.9225 41.0415 51.7982 44.861 55.1889 46.5971C52.0868 46.5277 49.0568 47.361 46.1711 50.2082C44.9447 51.3888 43.5019 52.4304 42.2754 53.611C40.6883 55.1388 38.9569 55.5554 36.7205 55.2082C33.2576 54.7221 29.7948 54.3749 26.332 54.1665C24.312 54.0277 22.5084 54.7915 22.292 57.1527C22.0756 59.236 23.1577 60.4165 25.2498 60.8332C27.847 61.3888 30.3719 61.9443 32.9691 62.4304C36.7205 63.1943 40.544 64.7221 44.1511 61.736C45.5219 60.6249 46.1711 62.2221 45.9547 63.0554C45.2333 65.5554 45.089 68.0554 43.5019 70.486C39.4619 76.5971 32.4641 81.6665 34.1955 90.2777C34.7726 93.1943 33.9069 96.111 34.2676 98.9582C33.6184 101.458 33.6905 103.819 36.8648 104.375C39.9669 104.93 40.9769 102.708 41.2654 100.208C41.4819 98.1249 41.9147 96.0415 41.8426 94.0277C41.7704 88.3332 44.3676 84.236 49.7061 81.6665C50.3554 82.7777 50.644 83.9582 50.7882 85.2082C51.5818 93.1943 55.8382 100.139 58.4353 107.569C59.0125 109.236 60.816 110 62.6196 109.236C64.351 108.472 65.5053 107.292 64.7839 105.139C63.5575 101.319 62.6196 97.4304 61.321 93.6804C59.5896 88.611 58.7961 83.611 60.5275 78.2638C62.0425 73.4027 62.836 68.3332 63.9903 63.4027C65.0003 58.9582 64.9282 59.0971 69.0403 61.3193C71.3488 62.5693 73.5852 64.861 76.5431 63.8888C80.6552 62.4999 84.6952 60.6943 88.7352 59.0971C90.5387 58.4721 90.6109 56.9443 90.3944 55.486Z" stroke="#D5C690" stroke-width="2" stroke-miterlimit="10" stroke-linecap="round" stroke-linejoin="round"/>
<g id="Group_2">
<g id="Group_3">
<path id="Vector_3" d="M19.4585 42.5971C29.1005 42.5971 36.9169 34.9797 36.9169 25.5832C36.9169 16.1867 29.1005 8.56934 19.4585 8.56934C9.81642 8.56934 2 16.1867 2 25.5832C2 34.9797 9.81642 42.5971 19.4585 42.5971Z" stroke="#D5C690" stroke-width="2" stroke-miterlimit="10" stroke-linecap="round" stroke-linejoin="round"/>
</g>
<path id="Vector_4" d="M19.4584 8.63892C19.4584 8.63892 -3.12216 24.125 19.4584 42.6667C26.0234 37.1111 39.2976 24.1945 19.4584 8.63892Z" stroke="#D5C690" stroke-width="2" stroke-miterlimit="10" stroke-linecap="round" stroke-linejoin="round"/>
<path id="Vector_5" d="M19.747 1.34717C19.747 1.34717 18.3763 38.9861 19.4584 42.5972" stroke="#D5C690" stroke-width="2" stroke-miterlimit="10" stroke-linecap="round" stroke-linejoin="round"/>
<path id="Vector_6" d="M2 25.5832C2 25.5832 17.3663 5.0971 36.9891 25.5832C36.9891 25.5832 22.3442 47.3888 2 25.5832Z" stroke="#D5C690" stroke-width="2" stroke-miterlimit="10" stroke-linecap="round" stroke-linejoin="round"/>
<path id="Vector_7" d="M2.28857 25.5139C2.28857 25.5139 20.9013 27.5278 36.7005 25.6528" stroke="#D5C690" stroke-width="2" stroke-miterlimit="10" stroke-linecap="round" stroke-linejoin="round"/>
<path id="Vector_8" d="M38.4319 1.55542C38.4319 1.55542 38.4319 7.04153 33.5262 7.04153C28.6205 7.04153 38.2876 6.2082 38.2876 12.1804C38.2876 18.1526 37.4219 7.24986 42.7604 7.24986C48.099 7.24986 38.6483 8.77764 38.4319 1.55542Z" stroke="#D5C690" stroke-width="2" stroke-miterlimit="10" stroke-linecap="round" stroke-linejoin="round"/>
<path id="Vector_9" d="M7.91565 12.875C7.91565 12.875 22.7048 32.7361 30.7848 38.3611" stroke="#D5C690" stroke-width="2" stroke-miterlimit="10" stroke-linecap="round" stroke-linejoin="round"/>
<path id="Vector_10" d="M5.89575 36.3472C5.89575 36.3472 22.1999 27.5972 31.6506 13.2222" stroke="#D5C690" stroke-width="2" stroke-miterlimit="10" stroke-linecap="round" stroke-linejoin="round"/>
</g>
</g>
</g>
<defs>
<clipPath id="clip0_292_79">
<rect width="94" height="110" fill="white"/>
</clipPath>
</defs>
</svg>
