<svg width="48" height="47" viewBox="0 0 48 47" fill="none" xmlns="http://www.w3.org/2000/svg">
<path d="M31.157 19.2481C34.1205 21.3759 37.6775 22.5192 41.3258 22.5166V15.2532C38.6289 15.2532 36.0424 14.1818 34.1354 12.2748C32.2284 10.3678 31.157 7.78129 31.157 5.08435H23.8936V28.3274C23.8935 29.2372 23.6493 30.1304 23.1864 30.9138C22.7235 31.6971 22.0588 32.3419 21.2618 32.7808C20.4648 33.2197 19.5646 33.4367 18.6551 33.4091C17.7457 33.3816 16.8603 33.1104 16.0913 32.6241C15.3223 32.1377 14.6979 31.4539 14.2833 30.6439C13.8687 29.834 13.679 28.9277 13.7341 28.0195C13.7891 27.1112 14.0869 26.2344 14.5963 25.4805C15.1057 24.7266 15.808 24.1232 16.6301 23.7332V16.1793C14.3178 16.5938 12.1717 17.6594 10.4437 19.251C8.71576 20.8425 7.47769 22.894 6.87482 25.1646C6.27195 27.4351 6.3293 29.8305 7.04015 32.0696C7.75099 34.3087 9.08582 36.2986 10.888 37.8056C12.6901 39.3126 14.8847 40.2743 17.2143 40.5777C19.5438 40.8812 21.9116 40.5138 24.0397 39.5186C26.1677 38.5235 27.9677 36.942 29.2284 34.9597C30.4891 32.9774 31.1581 30.6766 31.157 28.3274V19.2481Z" stroke="#D5C690" stroke-width="2" stroke-linecap="round" stroke-linejoin="round"/>
</svg>
